<svg id="Layer_1" data-name="Layer 1" xmlns="http://www.w3.org/2000/svg" viewBox="0 0 500 500"><defs><style>.cls-1{fill:none;stroke:#000;stroke-miterlimit:10;stroke-width:6px;}.cls-2{font-size:50px;font-family:Gotham-Bold, Gotham;font-weight:700;}.cls-3{letter-spacing:-0.01em;}.cls-4{letter-spacing:0em;}</style></defs><title>amazon_icons_istudiopie-chart_2x</title><path d="M249.12,6a244.07,244.07,0,0,1,95,468.83A244.06,244.06,0,0,1,154.14,25.17,242.47,242.47,0,0,1,249.12,6m0-6C111,0-.88,111.93-.88,250S111,500,249.12,500s250-111.93,250-250S387.19,0,249.12,0Z"/><line class="cls-1" x1="76.04" y1="69.6" x2="249.12" y2="250"/><line class="cls-1" x1="344.48" y1="481.16" x2="249.12" y2="250"/><line class="cls-1" x1="499.12" y1="250" x2="249.12" y2="250"/><line class="cls-1" x1="495.86" y1="209.54" x2="249.12" y2="250"/><line class="cls-1" x1="345.19" y1="19.13" x2="249.12" y2="250"/><text class="cls-2" transform="translate(106 320)">1-2</text><text class="cls-2" transform="translate(176.58 114.23)">2<tspan class="cls-3" x="31.15" y="0">-</tspan><tspan class="cls-4" x="51.05" y="0">3</tspan></text><text class="cls-2" transform="translate(337 349)">&lt;1</text><text class="cls-2" transform="translate(337 178)">3+</text></svg>