<svg id="Layer_1" data-name="Layer 1" xmlns="http://www.w3.org/2000/svg" viewBox="0 0 500 500"><defs><style>.cls-1{fill:#ff00f3;}.cls-2{fill:none;stroke:#000;stroke-miterlimit:10;stroke-width:6px;}.cls-3{font-size:50px;font-family:Gotham-Bold, Gotham;font-weight:700;}.cls-4{letter-spacing:-0.01em;}.cls-5{letter-spacing:0em;}</style></defs><title>amazon_icons_istudiopie-chart-highlight_2x</title><path class="cls-1" d="M247.81,268,344.07,37.13C422.49,69.8,480.7,141.26,494.74,227.54Z"/><path class="cls-1" d="M248,268,74.92,87.6A250.28,250.28,0,0,1,344.07,37.13Z"/><line class="cls-2" x1="76.92" y1="69.6" x2="250" y2="250"/><line class="cls-2" x1="496.74" y1="209.54" x2="250" y2="250"/><line class="cls-2" x1="346.07" y1="19.13" x2="250" y2="250"/><path d="M250,6a244.07,244.07,0,0,1,95,468.83A244.06,244.06,0,0,1,155,25.17,242.47,242.47,0,0,1,250,6m0-6C111.93,0,0,111.93,0,250S111.93,500,250,500,500,388.07,500,250,388.07,0,250,0Z"/><line class="cls-2" x1="345.37" y1="481.16" x2="250" y2="250"/><line class="cls-2" x1="500" y1="250" x2="250" y2="250"/><text class="cls-3" transform="translate(106.88 320)">1-2</text><text class="cls-3" transform="translate(177.46 114.23)">2<tspan class="cls-4" x="31.15" y="0">-</tspan><tspan class="cls-5" x="51.05" y="0">3</tspan></text><text class="cls-3" transform="translate(337.88 349)">&lt;1</text><text class="cls-3" transform="translate(337.88 178)">3+</text></svg>